<svg width="300" height="200" viewBox="0 0 300 200" fill="none" xmlns="http://www.w3.org/2000/svg">
<g id="Image">
<rect id="Rectangle" width="300" height="200" fill="#1E81BA"/>
<g id="Rects">
<rect id="Rectangle 2" width="99" height="39" transform="translate(0 161)" fill="#2D9CDB"/>
<rect id="Rectangle 3" width="77" height="42" transform="translate(223)" fill="#2D9CDB"/>
<rect id="Rectangle 4" width="59" height="36" transform="translate(190 21)" fill="#2D9CDB"/>
<rect id="Rectangle 5" width="20" height="20" transform="translate(176 29)" fill="#2D9CDB"/>
<rect id="Rectangle 6" width="10" height="10" transform="translate(180 11)" fill="#2D9CDB"/>
<rect id="Rectangle 2.1" width="47" height="20" transform="translate(14 145)" fill="#2D9CDB"/>
<rect id="Rectangle 2.2" width="29" height="18" transform="translate(3 131)" fill="#2D9CDB"/>
</g>
<path id="LPDP" d="M17.0781 81.6406H49.4219V89H8.03125V20.75H17.0781V81.6406ZM68.6875 62.2812V89H59.6875V20.75H84.8594C92.3281 20.75 98.1719 22.6563 102.391 26.4688C106.641 30.2812 108.766 35.3281 108.766 41.6094C108.766 48.2344 106.688 53.3438 102.531 56.9375C98.4062 60.5 92.4844 62.2812 84.7656 62.2812H68.6875ZM68.6875 54.9219H84.8594C89.6719 54.9219 93.3594 53.7969 95.9219 51.5469C98.4844 49.2656 99.7656 45.9844 99.7656 41.7031C99.7656 37.6406 98.4844 34.3906 95.9219 31.9531C93.3594 29.5156 89.8438 28.25 85.375 28.1562H68.6875V54.9219ZM120.25 89V20.75H139.516C145.453 20.75 150.703 22.0625 155.266 24.6875C159.828 27.3125 163.344 31.0469 165.812 35.8906C168.312 40.7344 169.578 46.2969 169.609 52.5781V56.9375C169.609 63.375 168.359 69.0156 165.859 73.8594C163.391 78.7031 159.844 82.4219 155.219 85.0156C150.625 87.6094 145.266 88.9375 139.141 89H120.25ZM129.25 28.1562V81.6406H138.719C145.656 81.6406 151.047 79.4844 154.891 75.1719C158.766 70.8594 160.703 64.7188 160.703 56.75V52.7656C160.703 45.0156 158.875 39 155.219 34.7188C151.594 30.4062 146.438 28.2187 139.75 28.1562H129.25ZM192.25 62.2812V89H183.25V20.75H208.422C215.891 20.75 221.734 22.6563 225.953 26.4688C230.203 30.2812 232.328 35.3281 232.328 41.6094C232.328 48.2344 230.25 53.3438 226.094 56.9375C221.969 60.5 216.047 62.2812 208.328 62.2812H192.25ZM192.25 54.9219H208.422C213.234 54.9219 216.922 53.7969 219.484 51.5469C222.047 49.2656 223.328 45.9844 223.328 41.7031C223.328 37.6406 222.047 34.3906 219.484 31.9531C216.922 29.5156 213.406 28.25 208.938 28.1562H192.25V54.9219Z" transform="translate(31 43)" fill="#2D9CDB"/>
</g>
</svg>
