<svg width="150" height="50" viewBox="0 0 150 50" fill="none" xmlns="http://www.w3.org/2000/svg">
<g id="Logo">
<rect id="Rectangle" width="150" height="50" fill="#221451"/>
<g id="Rects">
<rect id="Rectangle 2" width="34" height="11" transform="translate(0 39)" fill="#262F80" fill-opacity="0.5"/>
<rect id="Rectangle 4" width="12" height="12" transform="translate(120 22)" fill="#262F80" fill-opacity="0.5"/>
<rect id="Rectangle 4_2" width="14" height="11" transform="translate(136)" fill="#262F80" fill-opacity="0.5"/>
<rect id="Rectangle 4_3" width="4" height="4" transform="translate(127 4)" fill="#262F80" fill-opacity="0.5"/>
<rect id="Rectangle 4_4" width="17" height="15" transform="translate(28 3)" fill="#262F80" fill-opacity="0.5"/>
<rect id="Rectangle 4_5" width="12" height="10" transform="translate(41 12)" fill="#262F80" fill-opacity="0.5"/>
<rect id="Rectangle 4_6" width="9" height="9" transform="translate(89 37)" fill="#262F80" fill-opacity="0.5"/>
<rect id="Rectangle 4_7" width="10" height="10" transform="translate(97 2)" fill="#262F80" fill-opacity="0.5"/>
<rect id="Rectangle_2" width="16" height="11" transform="translate(13 31)" fill="#262F80" fill-opacity="0.5"/>
<rect id="Rectangle 2_2" width="11" height="10" transform="translate(5 24)" fill="#262F80" fill-opacity="0.5"/>
<rect id="Rectangle 3" width="33" height="19" transform="translate(117 31)" fill="#262F80" fill-opacity="0.5"/>
</g>
<path id="RCA" d="M45.0234 37V35.7812H41.3203V24.1094H45.7734L53.2734 37H60.3516C60.3516 36.3125 60.1641 35.9219 59.7891 35.8281C59.6328 35.7969 59.4453 35.7812 59.2266 35.7812H57.4453L49.8984 23.6875C52.8672 22.9688 54.8984 21.4219 55.9922 19.0469C56.3984 18.1094 56.6016 17.1562 56.6016 16.1875C56.6016 13.8438 55.5859 11.9688 53.5547 10.5625C51.8984 9.4375 49.8516 8.875 47.4141 8.875H33.5391V10.0938H37.2891V35.7812H33.5391V37H45.0234ZM46.0078 10.0938C48.6953 10.0938 50.5547 11.1875 51.5859 13.375C51.9922 14.2812 52.1953 15.2344 52.1953 16.2344C52.1953 18.4844 51.4141 20.2344 49.8516 21.4844C48.7891 22.3281 47.5547 22.75 46.1484 22.75H41.3203V10.0938H46.0078ZM86.0391 34.8438C86.0391 36.1562 86.2266 36.9062 86.6016 37.0938C86.8203 37.1875 87.1172 37.2344 87.4922 37.2344V28.375H86.3672C84.7734 33.5312 81.5859 36.125 76.8047 36.1562C72.7422 36.1562 69.9766 34.1094 68.5078 30.0156C67.7891 28.0156 67.4297 25.6562 67.4297 22.9375C67.4297 17.0938 69.0391 13.125 72.2578 11.0312C73.6641 10.1563 75.2266 9.71875 76.9453 9.71875C80.8516 9.71875 83.6797 11.5625 85.4297 15.25C85.7422 15.9062 86.0078 16.5781 86.2266 17.2656H87.3516L87.2109 8.64062C86.5234 8.64062 86.1016 8.85937 85.9453 9.29688C85.8516 9.67188 85.8047 10.2812 85.8047 11.125C84.8984 10.2187 83.3516 9.48438 81.1641 8.92188C79.7266 8.57812 78.2578 8.40625 76.7578 8.40625C71.8203 8.40625 68.0391 10.2344 65.4141 13.8906C63.6016 16.4844 62.6953 19.4688 62.6953 22.8438C62.6953 26.9375 63.9609 30.375 66.4922 33.1562C69.1797 36.0312 72.6797 37.4688 76.9922 37.4688C80.1484 37.4375 83.1641 36.5625 86.0391 34.8438ZM118.336 37C118.336 36.3125 118.086 35.9219 117.586 35.8281C117.43 35.7969 117.273 35.7812 117.117 35.7812H115.523L104.789 8.875H103.055L92.5547 35.7812H89.6016V37H97.9453C97.9453 36.3125 97.6953 35.9219 97.1953 35.8281C97.0391 35.7969 96.8828 35.7812 96.7266 35.7812H94.4297L97.9453 26.6875H107.742L111.258 35.7812H108.211V37H118.336ZM107.227 25.3281H98.4609L102.82 13.9844L107.227 25.3281Z" fill="#262F80"/>
</g>
</svg>
